HIERARCHY
ROOT Hips
{
 OFFSET 0.000000 0.000000 0.000000
 CHANNELS 6 Xposition Yposition Zposition Yrotation Xrotation Zrotation
 JOINT Chest
 {
  OFFSET 0.000000 9.585900 0.002600
  CHANNELS 3 Yrotation Xrotation Zrotation
  JOINT Chest2
  {
   OFFSET 0.000000 9.601200 -0.005300
   CHANNELS 3 Yrotation Xrotation Zrotation
   JOINT Chest3
   {
    OFFSET 0.000000 9.561800 0.000000
    CHANNELS 3 Yrotation Xrotation Zrotation
    JOINT Chest4
    {
     OFFSET 0.000000 9.552100 0.000000
     CHANNELS 3 Yrotation Xrotation Zrotation
     JOINT Neck
     {
      OFFSET 0.000000 14.453000 0.000000
      CHANNELS 3 Yrotation Xrotation Zrotation
      JOINT Head
      {
       OFFSET 0.000000 8.936500 -0.011300
       CHANNELS 3 Yrotation Xrotation Zrotation
       End Site
       {
        OFFSET 0.000000 17.073600 -0.006000
       }
      }
     }
     JOINT RightCollar
     {
      OFFSET -2.921100 9.558500 0.000000
      CHANNELS 3 Yrotation Xrotation Zrotation
      JOINT RightShoulder
      {
       OFFSET -13.519700 0.000000 0.000000
       CHANNELS 3 Yrotation Xrotation Zrotation
       JOINT RightElbow
       {
        OFFSET 0.000000 -29.696600 0.000000
        CHANNELS 3 Yrotation Xrotation Zrotation
        JOINT RightWrist
        {
         OFFSET 0.000000 -24.004700 0.000000
         CHANNELS 3 Yrotation Xrotation Zrotation
         End Site
         {
          OFFSET 0.000000 -17.728500 0.000000
         }
        }
       }
      }
     }
     JOINT LeftCollar
     {
      OFFSET 2.921100 9.558500 0.000000
      CHANNELS 3 Yrotation Xrotation Zrotation
      JOINT LeftShoulder
      {
       OFFSET 13.519700 0.000000 0.000000
       CHANNELS 3 Yrotation Xrotation Zrotation
       JOINT LeftElbow
       {
        OFFSET 0.000000 -29.696600 0.000000
        CHANNELS 3 Yrotation Xrotation Zrotation
        JOINT LeftWrist
        {
         OFFSET 0.000000 -24.004700 0.000000
         CHANNELS 3 Yrotation Xrotation Zrotation
         End Site
         {
          OFFSET 0.000000 -17.728500 0.000000
         }
        }
       }
      }
     }
    }
   }
  }
 }
 JOINT RightHip
 {
  OFFSET -7.771700 -0.012900 -0.001300
  CHANNELS 3 Yrotation Xrotation Zrotation
  JOINT RightKnee
  {
   OFFSET 0.000000 -40.869800 0.001200
   CHANNELS 3 Yrotation Xrotation Zrotation
   JOINT RightAnkle
   {
    OFFSET 0.000000 -39.717900 0.002100
    CHANNELS 3 Yrotation Xrotation Zrotation
    JOINT RightToe
    {
     OFFSET 0.000000 -4.965400 11.033500
     CHANNELS 3 Yrotation Xrotation Zrotation
     End Site
     {
      OFFSET 0.000000 -1.423100 5.872300
     }
    }
   }
  }
 }
 JOINT LeftHip
 {
  OFFSET 7.771700 -0.012900 -0.001300
  CHANNELS 3 Yrotation Xrotation Zrotation
  JOINT LeftKnee
  {
   OFFSET 0.000000 -40.869800 0.001200
   CHANNELS 3 Yrotation Xrotation Zrotation
   JOINT LeftAnkle
   {
    OFFSET 0.000000 -39.717900 0.002100
    CHANNELS 3 Yrotation Xrotation Zrotation
    JOINT LeftToe
    {
     OFFSET 0.000000 -4.965400 11.033500
     CHANNELS 3 Yrotation Xrotation Zrotation
     End Site
     {
      OFFSET 0.000000 -1.423100 5.872300
     }
    }
   }
  }
 }
}
MOTION
Frames: 15
Frame Time: 0.008333
0.000000 85.388000 0.000000 0.000000 -5.767877 0.000000 0.000000 11.653817 0.000000 0.000000 -5.885947 0.000000 0.000000 -0.000000 0.000000 0.000000 -0.000000 0.000000 0.000000 12.528835 0.000000 0.000000 0.711642 0.000000 0.000000 -0.000000 0.000000 0.000000 0.000000 -90.000000 0.000000 -2.309062 0.000000 0.000000 2.309062 0.000000 0.000000 -0.000000 0.000000 0.000000 -0.000000 90.000000 0.000000 -2.309062 0.000000 0.000000 2.309062 0.000000 0.000000 8.520406 0.000000 0.000000 1.905762 0.000000 -0.000000 -4.658285 0.000000 0.000000 -0.000000 0.000000 0.000000 8.520406 0.000000 0.000000 1.905762 0.000000 -0.000000 -4.658285 0.000000 0.000000 -0.000000 0.000000
22.052746 50.100896 59.071239 173.040351 -32.819606 -6.832254 7.701183 24.338382 8.345768 1.022929 4.148799 0.972968 1.666502 6.565205 1.578436 5.958001 20.201411 5.715459 -2.577420 16.736211 1.783572 -5.425877 -4.648874 4.181992 0.039603 -3.598655 -5.694796 11.959533 -9.780545 -6.708902 -142.293636 -48.721474 149.680607 -9.988892 -4.543436 45.905849 -13.551687 -2.437043 0.669432 1.127168 -15.437697 3.202631 114.821502 -43.379208 -139.530147 32.324382 14.622506 -58.283449 0.708776 -47.990082 10.040477 -122.183607 84.286085 -110.420851 -2.166161 -12.815698 -2.922179 -0.254142 0.806438 -0.131599 -8.328418 -51.590305 16.093356 -152.262936 80.961627 -159.912234 1.134089 -16.680528 8.470375 -0.264593 -0.766933 -0.135866
22.055781 50.102039 59.076374 172.998704 -32.802787 -6.828544 7.740987 24.348768 8.373063 1.030025 4.142445 0.972872 1.664106 6.552362 1.570932 5.977238 20.220762 5.729053 -2.571906 16.731061 1.790447 -5.400992 -4.645375 4.194986 0.041801 -3.701771 -5.707123 12.117203 -9.796243 -6.645140 -142.598460 -48.773924 149.895246 -9.995349 -4.676964 45.499264 -13.574833 -2.480623 0.675243 0.975049 -15.408362 3.197090 114.805093 -43.386974 -139.528206 32.348810 14.601657 -58.110429 0.714618 -48.013455 10.060302 -122.108979 84.302222 -110.334097 -2.160439 -12.781892 -2.934834 -0.257964 0.796431 -0.134695 -8.319361 -51.609558 16.123267 -152.144116 80.954665 -159.792611 1.177020 -16.670365 8.474456 -0.279273 -0.778598 -0.144601
22.057498 50.103287 59.079500 172.971033 -32.788364 -6.818147 7.771818 24.348239 8.390176 1.027581 4.135666 0.967738 1.682832 6.597039 1.596227 5.987487 20.224605 5.737673 -2.607208 16.677922 1.766755 -5.366851 -4.656230 4.203057 0.022392 -3.814627 -5.743594 12.288903 -9.815932 -6.595555 -142.820826 -48.802658 150.051508 -9.984195 -4.812040 45.119394 -13.618176 -2.565147 0.683222 0.832243 -15.363166 3.171414 114.827381 -43.411300 -139.557454 32.386625 14.554943 -57.900970 0.709332 -48.036008 10.058897 -122.190636 84.323404 -110.410381 -2.136701 -12.729576 -2.946738 -0.280192 0.763070 -0.145373 -8.313604 -51.623669 16.137667 -152.022461 80.949348 -159.678606 1.211737 -16.659512 8.484970 -0.282683 -0.786096 -0.151515
22.060740 50.103896 59.081499 172.948227 -32.770294 -6.812740 7.800700 24.343855 8.410027 1.024636 4.128620 0.963877 1.686708 6.606267 1.602175 6.003531 20.240791 5.757922 -2.603475 16.659482 1.762226 -5.367527 -4.710402 4.197802 0.017660 -3.931415 -5.785414 12.466113 -9.803494 -6.546702 -142.966482 -48.815990 150.145256 -9.969772 -4.946905 44.771598 -13.654024 -2.629579 0.687908 0.701110 -15.310301 3.142339 114.938339 -43.446309 -139.609950 32.449396 14.535776 -57.713564 0.708211 -48.058424 10.066987 -122.193830 84.335112 -110.404439 -2.131814 -12.703907 -2.967443 -0.250706 0.762336 -0.136600 -8.316309 -51.644171 16.160621 -151.921355 80.939900 -159.584415 1.231628 -16.639743 8.506976 -0.290601 -0.793390 -0.158996
22.066309 50.104932 59.079742 172.943414 -32.763244 -6.821894 7.816765 24.346815 8.432734 1.026826 4.137314 0.969695 1.680060 6.591550 1.592750 6.017627 20.253144 5.773918 -2.595089 16.647928 1.767193 -5.374990 -4.783975 4.183301 0.023649 -4.054432 -5.827204 12.645382 -9.769729 -6.498458 -143.053311 -48.827130 150.186035 -9.969629 -5.075628 44.456803 -13.687577 -2.719480 0.699483 0.581262 -15.208115 3.106721 115.059803 -43.488129 -139.679075 32.492327 14.500067 -57.554840 0.694213 -48.068274 10.081703 -122.224487 84.342786 -110.416211 -2.153154 -12.670028 -2.988971 -0.245533 0.747076 -0.127291 -8.330965 -51.650109 16.185694 -151.871382 80.930207 -159.536812 1.244820 -16.633285 8.519648 -0.295650 -0.801933 -0.168659
22.070700 50.104622 59.074923 172.934944 -32.757509 -6.813600 7.823899 24.344627 8.431379 1.044491 4.156272 0.983963 1.670119 6.588708 1.590454 6.009871 20.240344 5.766067 -2.583521 16.633222 1.771710 -5.394333 -4.869979 4.171672 0.027913 -4.145910 -5.859595 12.829696 -9.761813 -6.468033 -143.084874 -48.848160 150.180253 -9.987416 -5.190435 44.173786 -13.713533 -2.790282 0.704007 0.457781 -15.108506 3.077968 115.160572 -43.544480 -139.786167 32.504910 14.413585 -57.419972 0.686866 -48.078672 10.080832 -122.330303 84.345480 -110.523109 -2.134266 -12.642706 -3.000692 -0.243204 0.753947 -0.122414 -8.325023 -51.654180 16.185284 -151.893207 80.924896 -159.561117 1.243847 -16.633329 8.529431 -0.305143 -0.806901 -0.175899
22.075937 50.102877 59.067325 172.923950 -32.752660 -6.801224 7.845737 24.345074 8.436544 1.033462 4.150524 0.979289 1.686870 6.589819 1.595899 5.995176 20.239385 5.765302 -2.587607 16.562073 1.759968 -5.405127 -4.854673 4.172112 0.027056 -4.232599 -5.891816 13.009321 -9.764726 -6.449309 -143.062594 -48.878925 150.132787 -10.007360 -5.281429 43.922498 -13.739529 -2.852569 0.702182 0.335309 -15.017942 3.047545 115.266040 -43.609236 -139.896042 32.481330 14.350783 -57.345944 0.680513 -48.086751 10.075468 -122.507342 84.348607 -110.699333 -2.117546 -12.630084 -3.013314 -0.258069 0.751127 -0.125120 -8.309328 -51.658636 16.179881 -151.939797 80.915100 -159.607713 1.238169 -16.639397 8.533240 -0.307646 -0.799229 -0.168576
22.087514 50.099715 59.058616 172.906403 -32.744738 -6.817095 7.898770 24.323327 8.473896 1.016699 4.154853 0.981195 1.686489 6.573026 1.590001 5.992592 20.247501 5.772175 -2.606897 16.493099 1.746848 -5.437249 -4.946107 4.172946 0.022718 -4.307073 -5.919249 13.179282 -9.777280 -6.443469 -143.008128 -48.919459 150.062777 -10.015608 -5.348851 43.697795 -13.764345 -2.910330 0.701571 0.221874 -14.932208 3.007542 115.351685 -43.708617 -140.058271 32.436790 14.262632 -57.287362 0.655473 -48.096269 10.116093 -122.672485 84.346603 -110.855109 -2.082577 -12.653535 -3.025898 -0.300603 0.778886 -0.132792 -8.325678 -51.666939 16.222689 -152.000135 80.898611 -159.663741 1.277100 -16.640381 8.538703 -0.342080 -0.815575 -0.183754
22.094222 50.094977 59.045195 172.938753 -32.739189 -6.822471 7.878030 24.312930 8.463862 1.032856 4.130534 0.974821 1.671472 6.569279 1.590399 5.986957 20.258202 5.777165 -2.630730 16.434715 1.738363 -5.484484 -5.048410 4.176270 0.014531 -4.365478 -5.935253 13.334005 -9.795250 -6.450370 -142.962938 -48.976181 150.005159 -10.006133 -5.406989 43.493183 -13.786753 -2.958437 0.702415 0.120887 -14.854128 2.961340 115.479465 -43.816549 -140.196131 32.381281 14.244993 -57.314945 0.632618 -48.097826 10.103037 -122.878135 84.335990 -111.049186 -2.100549 -12.667265 -3.032621 -0.286398 0.785699 -0.134405 -8.334825 -51.677547 16.199253 -152.068036 80.878660 -159.723806 1.277285 -16.644555 8.553340 -0.350751 -0.806087 -0.187720
22.103058 50.089287 59.028901 172.967308 -32.739290 -6.831653 7.855839 24.312633 8.458690 1.040519 4.114642 0.971146 1.664979 6.569137 1.590683 5.978580 20.182913 5.743486 -2.654577 16.435186 1.748053 -5.534789 -5.110785 4.180657 0.001253 -4.358643 -5.922766 13.468299 -9.809620 -6.464712 -142.963035 -49.052530 149.987326 -9.973430 -5.465099 43.311318 -13.808234 -2.938016 0.707217 0.041103 -14.784680 2.911187 115.611045 -43.931383 -140.310284 32.307146 14.273746 -57.395207 0.612345 -48.095894 10.093944 -123.134677 84.322386 -111.291058 -2.098399 -12.681563 -3.043760 -0.276733 0.788861 -0.134547 -8.351225 -51.679303 16.190444 -152.087128 80.851675 -159.739315 1.287812 -16.662639 8.560248 -0.357086 -0.805292 -0.195565
22.110651 50.080424 59.012771 172.997551 -32.720617 -6.829821 7.838555 24.280056 8.441113 1.044239 4.099664 0.967020 1.647475 6.578671 1.594958 5.974291 20.137817 5.723271 -2.687214 16.398137 1.742303 -5.597569 -5.169765 4.187709 -0.012544 -4.392806 -5.922695 13.577883 -9.813871 -6.480378 -143.019819 -49.150578 150.016750 -9.915605 -5.528181 43.154932 -13.828501 -2.955332 0.704836 -0.012257 -14.723019 2.858020 115.730799 -44.053904 -140.419009 32.221904 14.317038 -57.492630 0.587537 -48.111182 10.076570 -123.413489 84.308103 -111.567765 -2.083967 -12.714367 -3.054912 -0.277575 0.806878 -0.134363 -8.361797 -51.700051 16.167733 -152.108163 80.830050 -159.758972 1.296745 -16.686531 8.563006 -0.364790 -0.795205 -0.198714
22.120754 50.073163 58.991307 173.010473 -32.731451 -6.825259 7.884514 24.244089 8.444000 1.016789 4.097794 0.967112 1.649264 6.528311 1.580813 5.954313 20.207119 5.760422 -2.726983 16.307637 1.714346 -5.669019 -5.225275 4.197271 -0.020253 -4.489205 -5.944240 13.663109 -9.807759 -6.496513 -143.129682 -49.268420 150.090587 -9.831047 -5.599521 43.019642 -13.838872 -3.034182 0.690802 -0.034016 -14.642136 2.841391 115.836699 -44.136897 -140.535624 32.139406 14.357787 -57.582147 0.541809 -48.097013 10.095932 -123.748205 84.292023 -111.920395 -2.078772 -12.745730 -3.066062 -0.288274 0.816119 -0.134539 -8.394348 -51.684807 16.181946 -152.025427 80.788650 -159.698883 1.318149 -16.714207 8.564079 -0.353502 -0.779727 -0.189409
22.128659 50.066278 58.965783 173.073383 -32.752971 -6.827472 7.852682 24.249246 8.418741 0.999173 4.102164 0.969566 1.660770 6.474872 1.564061 5.939611 20.135629 5.732152 -2.768185 16.336065 1.735677 -5.747338 -5.280015 4.208320 -0.041265 -4.476902 -5.910422 13.727144 -9.792843 -6.513905 -143.283428 -49.399101 150.202871 -9.722481 -5.675942 42.901106 -13.856311 -2.993807 0.696064 -0.055850 -14.554223 2.830344 115.964905 -44.224140 -140.667793 32.073899 14.378597 -57.640991 0.513969 -48.069278 10.055477 -124.264845 84.275078 -112.422732 -2.091361 -12.791078 -3.089761 -0.286054 0.820990 -0.126096 -8.432835 -51.665291 16.149186 -151.939921 80.743765 -159.629456 1.344777 -16.724333 8.579578 -0.343415 -0.796036 -0.207385
22.139761 50.051942 58.951968 173.123648 -32.691199 -6.846873 7.827187 24.166068 8.407740 0.980873 4.108486 0.970283 1.658048 6.462888 1.561913 5.933956 20.057563 5.698059 -2.813798 16.323536 1.740936 -5.834634 -5.337578 4.219989 -0.055493 -4.504448 -5.892285 13.773269 -9.770312 -6.533749 -143.462840 -49.535749 150.340677 -9.600208 -5.752980 42.800705 -13.868714 -2.996368 0.688411 -0.102592 -14.546670 2.743955 116.104235 -44.429940 -140.763348 32.038468 14.372883 -57.655656 0.458507 -48.131379 10.059353 -124.491115 84.259206 -112.650667 -2.082755 -12.802203 -3.094193 -0.292118 0.821658 -0.129330 -8.522994 -51.726712 16.182050 -151.901257 80.713621 -159.610826 1.368015 -16.758334 8.586116 -0.379899 -0.768536 -0.212164
